<svg width="245" height="242" xmlns="http://www.w3.org/2000/svg" xmlns:xlink="http://www.w3.org/1999/xlink" xml:space="preserve" overflow="hidden"><defs><clipPath id="clip0"><rect x="609" y="440" width="245" height="242"/></clipPath><clipPath id="clip1"><rect x="610" y="441" width="244" height="241"/></clipPath><clipPath id="clip2"><rect x="610" y="441" width="244" height="241"/></clipPath><clipPath id="clip3"><rect x="610" y="441" width="244" height="241"/></clipPath><radialGradient cx="0" cy="0" r="1" gradientUnits="userSpaceOnUse" spreadMethod="pad" id="fill4" gradientTransform="matrix(52.4478 0 0 52.4478 185.847 189.641)"><stop offset="0" stop-color="#797673" stop-opacity="0"/><stop offset="0.7898" stop-color="#737373" stop-opacity="1"/><stop offset="1" stop-color="#737373" stop-opacity="1"/></radialGradient><linearGradient x1="82.947" y1="136.777" x2="72.9914" y2="185.297" gradientUnits="userSpaceOnUse" spreadMethod="pad" id="fill5"><stop offset="0" stop-color="#522CD5" stop-opacity="1"/><stop offset="0.4397" stop-color="#8A6FE8" stop-opacity="1"/><stop offset="1" stop-color="#8A6FE8" stop-opacity="1"/></linearGradient><linearGradient x1="81.0323" y1="186.116" x2="52.2615" y2="237.96" gradientUnits="userSpaceOnUse" spreadMethod="pad" id="fill6"><stop offset="0" stop-color="#522CD5" stop-opacity="1"/><stop offset="0.4397" stop-color="#8A6FE8" stop-opacity="1"/><stop offset="1" stop-color="#8A6FE8" stop-opacity="1"/></linearGradient><radialGradient cx="0" cy="0" r="1" gradientUnits="userSpaceOnUse" spreadMethod="pad" id="fill7" gradientTransform="matrix(-21.906 2.68271e-15 -2.68271e-15 -21.906 60.3377 212.96)"><stop offset="0" stop-color="#522CD5" stop-opacity="1"/><stop offset="0.034" stop-color="#522CD5" stop-opacity="1"/><stop offset="0.9955" stop-color="#8A6FE8" stop-opacity="1"/><stop offset="1" stop-color="#8A6FE8" stop-opacity="1"/></radialGradient><linearGradient x1="110.386" y1="143.355" x2="113.204" y2="198.264" gradientUnits="userSpaceOnUse" spreadMethod="pad" id="fill8"><stop offset="0" stop-color="#522CD5" stop-opacity="1"/><stop offset="0.0624" stop-color="#522CD5" stop-opacity="1"/><stop offset="0.3999" stop-color="#8A6FE8" stop-opacity="1"/><stop offset="1" stop-color="#8A6FE8" stop-opacity="1"/></linearGradient><linearGradient x1="117.577" y1="179.158" x2="118.567" y2="240.24" gradientUnits="userSpaceOnUse" spreadMethod="pad" id="fill9"><stop offset="0" stop-color="#522CD5" stop-opacity="1"/><stop offset="0.4397" stop-color="#8A6FE8" stop-opacity="1"/><stop offset="1" stop-color="#8A6FE8" stop-opacity="1"/></linearGradient><radialGradient cx="0" cy="0" r="1" gradientUnits="userSpaceOnUse" spreadMethod="pad" id="fill10" gradientTransform="matrix(18.2716 9.75503 -9.75503 18.2716 123.271 215.866)"><stop offset="0" stop-color="#522CD5" stop-opacity="1"/><stop offset="0.034" stop-color="#522CD5" stop-opacity="1"/><stop offset="0.9955" stop-color="#8A6FE8" stop-opacity="1"/><stop offset="1" stop-color="#8A6FE8" stop-opacity="1"/></radialGradient><radialGradient cx="0" cy="0" r="1" gradientUnits="userSpaceOnUse" spreadMethod="pad" id="fill11" gradientTransform="matrix(56.6844 5.72029 -5.72029 56.6844 88.0036 72.1762)"><stop offset="0" stop-color="#A08BE8" stop-opacity="1"/><stop offset="0.4744" stop-color="#A08BE8" stop-opacity="1"/><stop offset="0.8618" stop-color="#8065E0" stop-opacity="1"/><stop offset="1" stop-color="#8065E0" stop-opacity="1"/></radialGradient><radialGradient cx="0" cy="0" r="1" gradientUnits="userSpaceOnUse" spreadMethod="pad" id="fill12" gradientTransform="matrix(73.5448 7.42175 -7.42175 73.5448 118.282 25.9541)"><stop offset="0" stop-color="#E1DFDD" stop-opacity="1"/><stop offset="0.456" stop-color="#E1DFDD" stop-opacity="1"/><stop offset="0.8188" stop-color="#FFFFFF" stop-opacity="1"/><stop offset="1" stop-color="#FFFFFF" stop-opacity="1"/></radialGradient><radialGradient cx="0" cy="0" r="1" gradientUnits="userSpaceOnUse" spreadMethod="pad" id="fill13" gradientTransform="matrix(19.2542 -14.9384 14.9384 19.2542 51.5069 26.1044)"><stop offset="0" stop-color="#605D5A" stop-opacity="1"/><stop offset="0.5301" stop-color="#605D5A" stop-opacity="1"/><stop offset="1" stop-color="#797673" stop-opacity="1"/></radialGradient><radialGradient cx="0" cy="0" r="1" gradientUnits="userSpaceOnUse" spreadMethod="pad" id="fill14" gradientTransform="matrix(16.6652 -12.9297 12.9297 16.6652 31.1393 42.5036)"><stop offset="0" stop-color="#E1DFDD" stop-opacity="1"/><stop offset="0.3565" stop-color="#E1DFDD" stop-opacity="1"/><stop offset="1" stop-color="#B3AFAB" stop-opacity="1"/></radialGradient><radialGradient cx="0" cy="0" r="1" gradientUnits="userSpaceOnUse" spreadMethod="pad" id="fill15" gradientTransform="matrix(30.2871 -23.4982 23.4982 30.2871 66.2733 39.0651)"><stop offset="0" stop-color="#605D5A" stop-opacity="1"/><stop offset="0.5301" stop-color="#605D5A" stop-opacity="1"/><stop offset="1" stop-color="#797673" stop-opacity="1"/></radialGradient><radialGradient cx="0" cy="0" r="1" gradientUnits="userSpaceOnUse" spreadMethod="pad" id="fill16" gradientTransform="matrix(11.6765 0 0 11.6765 179.006 111.493)"><stop offset="0" stop-color="#8065E0" stop-opacity="1"/><stop offset="0.8628" stop-color="#512BD4" stop-opacity="1"/><stop offset="1" stop-color="#512BD4" stop-opacity="1"/></radialGradient><linearGradient x1="58.6676" y1="132.454" x2="82.3085" y2="234.278" gradientUnits="userSpaceOnUse" spreadMethod="pad" id="fill17"><stop offset="0" stop-color="#C5D43B" stop-opacity="1"/><stop offset="0.1193" stop-color="#C5D43B" stop-opacity="1"/><stop offset="0.2631" stop-color="#E1EA95" stop-opacity="1"/><stop offset="1" stop-color="#E1EA95" stop-opacity="1"/></linearGradient><radialGradient cx="0" cy="0" r="1" gradientUnits="userSpaceOnUse" spreadMethod="pad" id="fill18" gradientTransform="matrix(16.8123 0 0 16.8123 46.066 154.677)"><stop offset="0" stop-color="#8065E0" stop-opacity="1"/><stop offset="0.8628" stop-color="#512BD4" stop-opacity="1"/><stop offset="1" stop-color="#512BD4" stop-opacity="1"/></radialGradient><radialGradient cx="0" cy="0" r="1" gradientUnits="userSpaceOnUse" spreadMethod="pad" id="fill19" gradientTransform="matrix(13.6011 1.37255 -1.37255 13.6011 38.3937 102.523)"><stop offset="0" stop-color="#8065E0" stop-opacity="1"/><stop offset="0.8628" stop-color="#512BD4" stop-opacity="1"/><stop offset="1" stop-color="#512BD4" stop-opacity="1"/></radialGradient></defs><g clip-path="url(#clip0)" transform="translate(-609 -440)"><g clip-path="url(#clip1)"><g clip-path="url(#clip2)"><g clip-path="url(#clip3)"><path d="M202.25 160.82 173.134 160.82 173.134 162.603 202.25 162.603 202.25 160.82Z" fill="#605D5A" fill-rule="nonzero" fill-opacity="1" transform="matrix(1.00005 0 0 1 610 441)"/><path d="M173.001 160.077 167.999 160.077C166.248 160.077 164.833 161.496 164.833 163.243L164.833 166.914 174.066 166.914 174.066 161.141C174.066 160.55 173.588 160.077 173.001 160.077Z" fill="#B3AFAB" fill-rule="nonzero" fill-opacity="1" transform="matrix(1.00005 0 0 1 610 441)"/><path d="M201.861 160.077 206.864 160.077C208.614 160.077 210.03 161.496 210.03 163.243L210.03 166.914 200.797 166.914 200.797 161.141C200.797 160.55 201.275 160.077 201.861 160.077Z" fill="#B3AFAB" fill-rule="nonzero" fill-opacity="1" transform="matrix(1.00005 0 0 1 610 441)"/><path d="M215.954 231.734 158.577 231.734C155.241 231.734 152.534 229.028 152.534 225.692L152.534 169.9C152.534 166.564 155.241 163.857 158.577 163.857L215.954 163.857C219.29 163.857 221.997 166.564 221.997 169.9L221.997 225.692C221.997 229.028 219.29 231.734 215.954 231.734Z" fill="#605D5A" fill-rule="nonzero" fill-opacity="1" transform="matrix(1.00005 0 0 1 610 441)"/><path d="M214.458 226.448 160.598 226.448C159.5 226.448 158.611 225.559 158.611 224.462L158.611 171.916C158.611 170.818 159.5 169.929 160.598 169.929L214.463 169.929C215.562 169.929 216.451 170.818 216.451 171.916L216.451 224.457C216.451 225.559 215.557 226.448 214.458 226.448Z" fill="#B3AFAB" fill-rule="nonzero" fill-opacity="1" transform="matrix(1.00005 0 0 1 610 441)"/><path d="M165.211 180.576C166.861 180.576 168.198 179.239 168.198 177.59 168.198 175.941 166.861 174.604 165.211 174.604 163.562 174.604 162.226 175.941 162.226 177.59 162.226 179.239 163.562 180.576 165.211 180.576Z" fill="#E1DFDD" fill-rule="nonzero" fill-opacity="1" transform="matrix(1.00005 0 0 1 610 441)"/><path d="M158.606 186.041 158.606 224.462C158.606 225.559 159.495 226.448 160.594 226.448L214.458 226.448C215.557 226.448 216.446 225.559 216.446 224.462L216.446 186.041 158.606 186.041Z" fill="url(#fill4)" fill-rule="nonzero" transform="matrix(1.00005 0 0 1 610 441)"/><path d="M190.424 180.576C192.073 180.576 193.41 179.239 193.41 177.59 193.41 175.941 192.073 174.604 190.424 174.604 188.776 174.604 187.438 175.941 187.438 177.59 187.438 179.239 188.776 180.576 190.424 180.576Z" fill="#E1DFDD" fill-rule="nonzero" fill-opacity="1" transform="matrix(1.00005 0 0 1 610 441)"/><path d="M200.049 180.576C201.698 180.576 203.036 179.239 203.036 177.59 203.036 175.941 201.698 174.604 200.049 174.604 198.401 174.604 197.063 175.941 197.063 177.59 197.063 179.239 198.401 180.576 200.049 180.576Z" fill="#E1DFDD" fill-rule="nonzero" fill-opacity="1" transform="matrix(1.00005 0 0 1 610 441)"/><path d="M209.859 180.576C211.508 180.576 212.845 179.239 212.845 177.59 212.845 175.941 211.508 174.604 209.859 174.604 208.21 174.604 206.873 175.941 206.873 177.59 206.873 179.239 208.21 180.576 209.859 180.576Z" fill="#E1DFDD" fill-rule="nonzero" fill-opacity="1" transform="matrix(1.00005 0 0 1 610 441)"/><path d="M216.446 185.809 158.625 185.809 158.625 187.659 216.446 187.659 216.446 185.809Z" fill="#797673" fill-rule="nonzero" fill-opacity="1" transform="matrix(1.00005 0 0 1 610 441)"/><path d="M78.5386 231.408C76.7309 231.408 74.7199 231.129 72.4532 230.495 63.8786 228.101 56.1085 223.131 48.594 218.324 45.7925 216.531 43.0716 214.794 40.4264 213.265 37.8284 219.772 33.8677 225.734 27.8201 228.787 19.6052 232.931 12.1899 230.462 9.11406 225.872 5.33312 220.231 8.71183 214.127 13.1363 210.288 21.4648 203.072 30.1151 205.074 39.1203 209.839 42.8728 198.728 43.0006 186.732 43.0006 186.534 43.0054 185.881 43.5306 185.355 44.1837 185.355L44.1883 185.355C44.8413 185.36 45.3667 185.89 45.3667 186.543 45.3619 187.376 45.2294 199.604 41.2592 211.012 44.0937 212.627 46.9613 214.462 49.8669 216.317 57.2347 221.031 64.8534 225.9 73.0872 228.2 83.001 230.973 87.0658 226.288 91.3768 221.334 94.5095 217.733 97.7462 214.008 103.217 213.119 109.496 212.096 115.473 215.456 121.795 219.01 127.638 222.294 133.686 225.692 140.747 226.312 146.624 226.823 152.189 224.722 157.276 220.061 168.004 210.227 173.796 191.511 173.796 178.896 173.796 178.243 174.326 177.713 174.979 177.713 175.632 177.713 176.162 178.243 176.162 178.896 176.162 192.349 170.223 211.406 158.876 221.807 153.277 226.936 147.107 229.25 140.539 228.673 132.967 228.01 126.413 224.329 120.63 221.078 114.417 217.585 109.055 214.567 103.59 215.456 98.967 216.209 96.142 219.454 93.1561 222.89 89.6543 226.936 85.7645 231.408 78.5386 231.408ZM25.1133 207.946C21.5358 207.946 18.0719 209.148 14.6885 212.082 10.0179 216.133 8.63612 220.912 11.0826 224.556 14.3809 229.478 21.4648 229.344 26.7553 226.675 32.2587 223.898 35.9024 218.271 38.3064 212.087 33.7115 209.621 29.3296 207.946 25.1133 207.946Z" fill="#C5D43B" fill-rule="nonzero" fill-opacity="1" transform="matrix(1.00005 0 0 1 610 441)"/><path d="M175.693 184.101 174.179 184.101C173.696 184.101 173.308 183.709 173.308 183.231L173.308 177.315C173.308 176.832 173.701 176.445 174.179 176.445L175.693 176.445C176.176 176.445 176.564 176.837 176.564 177.315L176.564 183.231C176.568 183.713 176.176 184.101 175.693 184.101Z" fill="#797673" fill-rule="nonzero" fill-opacity="1" transform="matrix(1.00005 0 0 1 610 441)"/><path d="M174.842 180.576C176.491 180.576 177.827 179.239 177.827 177.59 177.827 175.941 176.491 174.604 174.842 174.604 173.192 174.604 171.856 175.941 171.856 177.59 171.856 179.239 173.192 180.576 174.842 180.576Z" fill="#E1DFDD" fill-rule="nonzero" fill-opacity="1" transform="matrix(1.00005 0 0 1 610 441)"/><path d="M154.678 141.527C147.007 141.527 139.143 137.74 131.278 130.273 124.175 123.525 118.89 115.477 116.367 111.279L126.513 105.194C133.402 116.674 145.005 129.985 155 129.696 160.881 129.531 166.489 124.449 171.671 114.596L182.143 120.1C174.828 134.017 165.808 141.224 155.335 141.522 155.113 141.522 154.895 141.527 154.678 141.527Z" fill="#8A6FE8" fill-rule="nonzero" fill-opacity="1" transform="matrix(1.00005 0 0 1 610 441)"/><path d="M67.8109 184.285C67.6501 174.112 69.0082 153.456 79.433 136.113L89.73 142.303C80.2753 158.032 79.6412 176.34 79.8967 184.323 79.9157 184.981 73.7591 185.611 67.8109 184.285Z" fill="url(#fill5)" fill-rule="nonzero" transform="matrix(1.00005 0 0 1 610 441)"/><path d="M79.8872 184.21 70.3758 184.21 61.7303 235.103 80.8148 235.103C82.2675 235.103 83.3606 233.925 83.2612 232.472L79.8872 184.21Z" fill="#522CD5" fill-rule="nonzero" fill-opacity="1" transform="matrix(1.00005 0 0 1 610 441)"/><path d="M46.507 222.053C44.8697 223.363 44.9077 225.014 45.0449 227.002L45.4707 233.092C45.5464 234.18 46.5023 235.071 47.5954 235.071L71.6155 235.071C72.8506 235.071 73.7828 234.067 73.6977 232.832L73.4705 226.519C73.3096 224.225 74.8334 222.833 75.8318 220.221 77.8146 215.04 78.5197 197.322 77.6017 184.21L67.8063 184.21C67.1958 192.003 62.3975 209.327 46.507 222.053Z" fill="url(#fill6)" fill-rule="nonzero" transform="matrix(1.00005 0 0 1 610 441)"/><path d="M73.4705 226.52 73.6977 232.832C73.7828 234.068 72.8506 235.071 71.6155 235.071L47.5954 235.071C46.5023 235.071 45.5512 234.181 45.4707 233.093L45.0448 227.002C44.9407 225.535 44.8981 224.253 45.5369 223.155L74.3885 223.155C73.8207 224.244 73.3806 225.242 73.4705 226.52Z" fill="url(#fill7)" fill-rule="nonzero" transform="matrix(1.00005 0 0 1 610 441)"/><path d="M115.743 198.132 104.873 191.389C110.617 182.132 114.393 175.82 116.713 170.965 119.201 165.75 119.045 164.065 118.993 163.795 118.785 163.554 117.502 162.376 111.27 161.037 94.4527 157.422 90.8515 157.133 90.7048 157.119 90.8799 157.133 90.9509 157.128 90.9509 157.128L91.1024 144.337C93.3595 144.366 101.688 145.89 113.958 148.53 121.076 150.058 128.037 152.358 130.762 158.77 134.424 167.378 128.467 177.618 115.743 198.132Z" fill="url(#fill8)" fill-rule="nonzero" transform="matrix(1.00005 0 0 1 610 441)"/><path d="M113.21 178.252 121.501 182.682 105.351 231.081 88.7079 222.195C87.4397 221.518 87.0328 219.98 87.7993 218.764L113.21 178.252Z" fill="#522CD5" fill-rule="nonzero" fill-opacity="1" transform="matrix(1.00005 0 0 1 610 441)"/><path d="M129.323 229C130.147 230.902 129.239 232.529 128.192 234.2L124.984 239.311C124.412 240.224 123.162 240.555 122.211 240.049L104.873 230.792C103.793 230.216 103.449 228.909 104.101 227.873L107.182 222.445C108.388 220.519 108.114 219.427 107.585 216.71 106.671 212.068 108.299 190.328 115.203 179.322L123.74 183.879C120.649 190.958 121.468 210.823 129.323 229Z" fill="url(#fill9)" fill-rule="nonzero" transform="matrix(1.00005 0 0 1 610 441)"/><path d="M128.192 234.195C128.921 233.031 129.574 231.881 129.626 230.651L107.996 219.105C108.119 220.307 107.958 221.206 107.182 222.441L104.101 227.868C103.453 228.905 103.798 230.211 104.873 230.788L122.211 240.044C123.162 240.551 124.412 240.219 124.984 239.306L128.192 234.195Z" fill="url(#fill10)" fill-rule="nonzero" transform="matrix(1.00005 -5.57415e-17 5.57415e-17 1 610 441)"/><path d="M136.214 85.475C134.481 68.5577 127.298 57.2149 127.298 57.2149L130.928 55.8615 130.993 55.7574C115.246 29.3996 82.4663 17.2003 52.6683 28.3113 19.0941 40.8277 2.0254 78.1923 14.5418 111.762 27.0582 145.331 64.4228 162.4 97.9923 149.883 124.482 140.008 140.69 114.658 140.202 87.912 140.07 86.8189 139.38 85.0254 136.214 85.475Z" fill="url(#fill11)" fill-rule="nonzero" transform="matrix(1.00005 1.39354e-17 0 1 610 441)"/><path d="M136.214 85.4748C134.5 68.7659 127.478 57.4987 127.308 57.2289L64.2429 80.7428C64.2429 80.7428 60.1213 81.8217 61.4699 85.4512 62.8233 89.0807 66.7983 99.2784 71.0241 110.621 71.8948 112.954 74.2229 113.366 75.7278 112.808 75.7278 112.803 136.303 87.9261 136.214 85.4748Z" fill="url(#fill12)" fill-rule="nonzero" transform="matrix(1.00005 0 0 1 610 441)"/><path d="M98.1674 99.7132C98.1674 99.7132 105 88.4182 106.368 86.2935 107.731 84.1688 109.359 83.4731 111.654 84.3249 113.949 85.1768 126.494 89.1517 126.494 89.1517L98.1674 99.7132Z" fill="#A08BE8" fill-rule="nonzero" fill-opacity="1" transform="matrix(1.00005 0 0 1 610 441)"/><path d="M140.221 88.7021C140.221 88.7021 140.699 84.836 136.214 85.4748 136.214 85.4559 74.1945 108.544 74.1945 108.544 72.7513 109.083 70.5746 108.913 69.8931 107.574 70.2669 108.576 70.6502 109.589 71.0288 110.612 71.8191 112.727 73.8065 113.262 75.2924 112.921 75.4391 112.884 75.5858 112.85 75.7325 112.793L79.9725 111.213 140.221 88.7021Z" fill="#512BD4" fill-rule="nonzero" fill-opacity="1" transform="matrix(1.00005 0 0 1 610 441)"/><path d="M139.218 100.339 34.3977 139.42C38.2401 142.54 42.4186 145.199 46.8384 147.357L135.012 114.478C136.938 109.954 138.357 105.212 139.218 100.339Z" fill="#D0C5F3" fill-rule="nonzero" fill-opacity="1" transform="matrix(1.00005 0 0 1 610 441)"/><path d="M132.044 71.2171 116.135 77.2174C117.332 79.5077 121.378 80.3216 125.576 79.0155 130.076 77.6148 133.048 74.3119 132.214 71.6335 132.173 71.4916 132.111 71.3495 132.044 71.2171Z" fill="#8065E0" fill-rule="nonzero" fill-opacity="1" transform="matrix(1.00005 0 0 1 610 441)"/><path d="M97.8645 84.1119 81.9978 90.0981C83.337 92.218 87.241 92.942 91.3011 91.6738 95.8013 90.2731 98.7731 86.9701 97.9402 84.2917 97.9166 84.235 97.8882 84.1734 97.8645 84.1119Z" fill="#8065E0" fill-rule="nonzero" fill-opacity="1" transform="matrix(1.00005 0 0 1 610 441)"/><path d="M112.123 126.774 131.992 119.291 125.374 101.715 105.504 109.198 112.123 126.774Z" fill="#512BD4" fill-rule="nonzero" fill-opacity="1" transform="matrix(1.00005 0 0 1 610 441)"/><path d="M113.107 118.912C112.974 118.959 112.847 118.959 112.718 118.907 112.591 118.85 112.505 118.76 112.458 118.638 112.411 118.509 112.416 118.387 112.477 118.258 112.534 118.136 112.634 118.046 112.766 117.998 112.899 117.947 113.031 117.952 113.158 118.008 113.286 118.065 113.377 118.155 113.423 118.282 113.471 118.406 113.461 118.533 113.4 118.657 113.339 118.774 113.244 118.865 113.107 118.912Z" fill="#FFFFFF" fill-rule="nonzero" fill-opacity="1" transform="matrix(1.00005 0 0 1 610 441)"/><path d="M118.369 116.863 117.507 117.185 113.906 114.459C113.817 114.388 113.731 114.313 113.66 114.232L113.641 114.241C113.698 114.341 113.788 114.559 113.915 114.899L115.108 118.088 114.347 118.372 112.529 113.508 113.447 113.167 116.94 115.84C117.086 115.95 117.181 116.03 117.229 116.072L117.243 116.067C117.172 115.95 117.081 115.732 116.964 115.424L115.795 112.292 116.551 112.007 118.369 116.863Z" fill="#FFFFFF" fill-rule="nonzero" fill-opacity="1" transform="matrix(1.00005 0 0 1 610 441)"/><path d="M122.073 115.476 119.41 116.47 117.593 111.605 120.147 110.65 120.403 111.336 118.634 111.998 119.15 113.376 120.782 112.765 121.038 113.446 119.405 114.057 119.944 115.495 121.819 114.795 122.073 115.476Z" fill="#FFFFFF" fill-rule="nonzero" fill-opacity="1" transform="matrix(1.00005 0 0 1 610 441)"/><path d="M124.298 109.883 122.935 110.394 124.496 114.573 123.712 114.865 122.149 110.688 120.792 111.194 120.536 110.507 124.047 109.197 124.298 109.883Z" fill="#FFFFFF" fill-rule="nonzero" fill-opacity="1" transform="matrix(1.00005 0 0 1 610 441)"/><path d="M42.3949 1.80668 17.4757 17.1339C12.3745 20.2713 10.3965 26.7117 12.8572 32.1725L22.6005 53.7746 71.6487 23.6074 55.9286 4.13014C52.6446 0.0605394 46.8478-0.933201 42.3949 1.80668Z" fill="url(#fill13)" fill-rule="nonzero" transform="matrix(1.00005 -5.57415e-17 0 1 610 441)"/><path d="M18.1335 43.8656 22.6005 53.7746 71.6487 23.6028 64.825 15.1466 18.1335 43.8656Z" fill="url(#fill14)" fill-rule="nonzero" transform="matrix(1.00005 -5.57415e-17 5.57415e-17 1 610 441)"/><path d="M10.4721 59.4059C13.3966 62.6427 17.859 63.6743 21.1856 61.6253L76.0449 27.8854C79.3715 25.8412 80.4646 21.3929 78.8935 17.3186L10.4721 59.4059Z" fill="url(#fill15)" fill-rule="nonzero" transform="matrix(1.00005 5.57415e-17 -5.57415e-17 1 610 441)"/><path d="M179.006 123.166C185.453 123.166 190.68 117.94 190.68 111.491 190.68 105.044 185.453 99.8178 179.006 99.8178 172.558 99.8178 167.332 105.044 167.332 111.491 167.332 117.94 172.558 123.166 179.006 123.166Z" fill="url(#fill16)" fill-rule="nonzero" transform="matrix(1.00005 0 0 1 610 441)"/><path d="M235.592 87.7132C237.226 87.7132 238.55 86.3891 238.55 84.7557 238.55 83.1223 237.226 81.7982 235.592 81.7982 233.959 81.7982 232.635 83.1223 232.635 84.7557 232.635 86.3891 233.959 87.7132 235.592 87.7132Z" fill="#E1DFDD" fill-rule="nonzero" fill-opacity="1" transform="matrix(1.00005 0 0 1 610 441)"/><path d="M229.171 88.4231C230.804 88.4231 232.129 87.099 232.129 85.4656 232.129 83.8322 230.804 82.5079 229.171 82.5079 227.537 82.5079 226.213 83.8322 226.213 85.4656 226.213 87.099 227.537 88.4231 229.171 88.4231Z" fill="#E1DFDD" fill-rule="nonzero" fill-opacity="1" transform="matrix(1.00005 0 0 1 610 441)"/><path d="M222.75 89.133C224.383 89.133 225.706 87.8088 225.706 86.1753 225.706 84.5419 224.383 83.2178 222.75 83.2178 221.116 83.2178 219.792 84.5419 219.792 86.1753 219.792 87.8088 221.116 89.133 222.75 89.133Z" fill="#E1DFDD" fill-rule="nonzero" fill-opacity="1" transform="matrix(1.00005 0 0 1 610 441)"/><path d="M216.327 89.8474C217.962 89.8474 219.285 88.5232 219.285 86.8898 219.285 85.2564 217.962 83.9322 216.327 83.9322 214.694 83.9322 213.371 85.2564 213.371 86.8898 213.371 88.5232 214.694 89.8474 216.327 89.8474Z" fill="#E1DFDD" fill-rule="nonzero" fill-opacity="1" transform="matrix(1.00005 0 0 1 610 441)"/><path d="M209.906 90.5571C211.54 90.5571 212.864 89.233 212.864 87.5996 212.864 85.9662 211.54 84.6421 209.906 84.6421 208.273 84.6421 206.949 85.9662 206.949 87.5996 206.949 89.233 208.273 90.5571 209.906 90.5571Z" fill="#E1DFDD" fill-rule="nonzero" fill-opacity="1" transform="matrix(1.00005 0 0 1 610 441)"/><path d="M203.485 91.267C205.118 91.267 206.442 89.9429 206.442 88.3095 206.442 86.676 205.118 85.3519 203.485 85.3519 201.851 85.3519 200.527 86.676 200.527 88.3095 200.527 89.9429 201.851 91.267 203.485 91.267Z" fill="#E1DFDD" fill-rule="nonzero" fill-opacity="1" transform="matrix(1.00005 0 0 1 610 441)"/><path d="M189.852 109.954 191.247 98.4787C191.598 95.417 189.402 92.6535 186.341 92.3033 183.279 91.9531 180.515 94.1487 180.165 97.2104L178.736 108.975 189.852 109.954Z" fill="#8A6FE8" fill-rule="nonzero" fill-opacity="1" transform="matrix(1.00005 0 0 1 610 441)"/><path d="M95.7729 128.693 75.7799 128.693 75.7799 146.377 95.7729 146.377 95.7729 128.693Z" fill="#512BD4" fill-rule="nonzero" fill-opacity="1" transform="matrix(1.00005 0 0 1 610 441)"/><path d="M76.7357 117.558C76.7357 117.558 82.9111 112.67 84.1178 111.766 85.3245 110.863 86.3797 110.81 87.4823 111.766 88.5896 112.722 94.7745 117.558 94.7745 117.558L76.7357 117.558Z" fill="#A08BE8" fill-rule="nonzero" fill-opacity="1" transform="matrix(1.00005 0 0 1 610 441)"/><path d="M103.851 132.408C103.851 132.408 98.6074 132.266 100.827 123.568 104.135 110.635 89.2804 102.548 78.1222 113.608 66.9639 124.666 63.4433 127.164 44.9502 125.518 22.6667 123.535 1.76985 136.241 15.7153 171.026 29.6608 205.812 50.3022 213.653 70.6265 190.428 82.7076 176.624 87.1037 174.467 98.333 175.683 106.861 176.605 114.777 172.366 117.384 169.607 120.55 166.261 119.499 159.75 111.167 161.009 102.833 162.268 97.9923 159.702 96.62 156.272 95.2429 152.836 97.3297 147.669 102.644 145.364 107.949 143.069 103.851 132.408 103.851 132.408Z" fill="#E1EA95" fill-rule="nonzero" fill-opacity="1" transform="matrix(1.00005 0 0 1 610 441)"/><path d="M103.851 132.408C103.851 132.408 98.6074 132.266 100.827 123.568 104.135 110.635 91.0219 106.712 79.8588 117.771 68.6959 128.83 65.1799 131.329 46.6869 129.682 24.4034 127.699 1.76985 136.246 15.7153 171.026 29.6608 205.807 50.3022 213.653 70.6265 190.428 82.7076 176.624 87.1037 174.467 98.333 175.683 106.861 176.605 114.777 172.366 117.384 169.607 120.55 166.261 119.499 159.75 111.167 161.009 102.833 162.268 97.9923 159.702 96.62 156.272 95.2429 152.836 97.3297 147.669 102.644 145.364 107.949 143.069 103.851 132.408 103.851 132.408Z" fill="url(#fill17)" fill-rule="nonzero" transform="matrix(1.00005 0 0 1 610 441)"/><path d="M73.5132 182.951 55.5312 138.091C55.5312 138.091 61.7066 128.858 80.0435 128.783 98.3803 128.712 98.8488 135.28 98.8488 135.28L95.3187 147.872C95.3187 147.872 91.5141 152.865 93.9511 157.862 96.3882 162.863 99.3883 163.663 104.721 164.203 112.486 164.988 110.102 173.307 99.1895 172.659 85.651 171.85 77.8099 176.809 73.5132 182.951Z" fill="#FFFFFF" fill-rule="nonzero" fill-opacity="1" transform="matrix(1.00005 0 0 1 610 441)"/><path d="M80.0576 157.79 77.5922 158.78C76.6222 159.168 75.5243 158.699 75.1362 157.73L69.9877 144.886C69.5997 143.916 70.0682 142.818 71.0382 142.43L73.5037 141.441C74.4738 141.054 75.5716 141.522 75.9596 142.492L81.1082 155.334C81.4962 156.3 81.023 157.403 80.0576 157.79Z" fill="#C8C6C4" fill-rule="nonzero" fill-opacity="1" transform="matrix(1.00005 0 0 1 610 441)"/><path d="M193.538 96.3492C195.246 95.6631 196.221 93.4958 196.704 92.0099 196.998 91.1014 197.782 90.4436 198.734 90.3253 205.77 89.4641 233.283 86.1231 237.532 85.9245 245.359 85.5601 244.299 98.1853 237.541 97.1821 233.122 96.5291 229.507 95.7246 226.521 99.5198 223.534 103.315 223 106.495 213.474 106.31 203.168 106.107 198.162 107.876 198.162 107.876L193.538 96.3492Z" fill="#C5D43B" fill-rule="nonzero" fill-opacity="1" transform="matrix(1.00005 0 0 1 610 441)"/><path d="M73.8539 180.992 45.7878 192.245C43.436 193.186 40.767 192.046 39.8254 189.695 38.8837 187.343 40.0241 184.674 42.376 183.732L70.442 172.479C72.7939 171.537 75.4628 172.677 76.4045 175.03 77.3462 177.382 76.2057 180.051 73.8539 180.992Z" fill="#C8C6C4" fill-rule="nonzero" fill-opacity="1" transform="matrix(1.00005 0 0 1 610 441)"/><path d="M44.6663 190.225C46.1743 190.225 47.3967 189.002 47.3967 187.494 47.3967 185.986 46.1743 184.763 44.6663 184.763 43.1583 184.763 41.9359 185.986 41.9359 187.494 41.9359 189.002 43.1583 190.225 44.6663 190.225Z" fill="#797673" fill-rule="nonzero" fill-opacity="1" transform="matrix(1.00005 0 0 1 610 441)"/><path d="M57.9067 184.92C59.4147 184.92 60.6371 183.698 60.6371 182.189 60.6371 180.681 59.4147 179.459 57.9067 179.459 56.3988 179.459 55.1763 180.681 55.1763 182.189 55.1763 183.698 56.3988 184.92 57.9067 184.92Z" fill="#797673" fill-rule="nonzero" fill-opacity="1" transform="matrix(1.00005 0 0 1 610 441)"/><path d="M71.5446 179.449C73.0526 179.449 74.275 178.227 74.275 176.719 74.275 175.211 73.0526 173.989 71.5446 173.989 70.0366 173.989 68.8142 175.211 68.8142 176.719 68.8142 178.227 70.0366 179.449 71.5446 179.449Z" fill="#797673" fill-rule="nonzero" fill-opacity="1" transform="matrix(1.00005 0 0 1 610 441)"/><path d="M198.162 107.881 92.3375 151.232 87.0706 138.096 193.538 96.3492 198.162 107.881Z" fill="#B3AFAB" fill-rule="nonzero" fill-opacity="1" transform="matrix(1.00005 0 0 1 610 441)"/><path d="M186.595 98.8871 185.392 99.3696 190.179 111.312 191.383 110.83 186.595 98.8871Z" fill="#E1DFDD" fill-rule="nonzero" fill-opacity="1" transform="matrix(1.00005 0 0 1 610 441)"/><path d="M177.419 102.49 176.215 102.972 181.054 115.042 182.257 114.56 177.419 102.49Z" fill="#E1DFDD" fill-rule="nonzero" fill-opacity="1" transform="matrix(1.00005 0 0 1 610 441)"/><path d="M168.245 106.086 167.041 106.568 171.931 118.765 173.135 118.283 168.245 106.086Z" fill="#E1DFDD" fill-rule="nonzero" fill-opacity="1" transform="matrix(1.00005 0 0 1 610 441)"/><path d="M159.073 109.686 157.869 110.169 162.809 122.494 164.013 122.011 159.073 109.686Z" fill="#E1DFDD" fill-rule="nonzero" fill-opacity="1" transform="matrix(1.00005 0 0 1 610 441)"/><path d="M149.896 113.289 148.693 113.771 153.684 126.223 154.888 125.741 149.896 113.289Z" fill="#E1DFDD" fill-rule="nonzero" fill-opacity="1" transform="matrix(1.00005 0 0 1 610 441)"/><path d="M140.722 116.885 139.519 117.367 144.562 129.947 145.765 129.465 140.722 116.885Z" fill="#E1DFDD" fill-rule="nonzero" fill-opacity="1" transform="matrix(1.00005 0 0 1 610 441)"/><path d="M131.546 120.487 130.342 120.969 135.435 133.672 136.638 133.189 131.546 120.487Z" fill="#E1DFDD" fill-rule="nonzero" fill-opacity="1" transform="matrix(1.00005 0 0 1 610 441)"/><path d="M122.374 124.088 121.17 124.57 126.314 137.4 127.517 136.918 122.374 124.088Z" fill="#E1DFDD" fill-rule="nonzero" fill-opacity="1" transform="matrix(1.00005 0 0 1 610 441)"/><path d="M113.196 127.685 111.992 128.168 117.187 141.125 118.39 140.643 113.196 127.685Z" fill="#E1DFDD" fill-rule="nonzero" fill-opacity="1" transform="matrix(1.00005 0 0 1 610 441)"/><path d="M104.024 131.286 102.82 131.769 108.066 144.854 109.27 144.371 104.024 131.286Z" fill="#E1DFDD" fill-rule="nonzero" fill-opacity="1" transform="matrix(1.00005 0 0 1 610 441)"/><path d="M94.8474 134.888 93.6439 135.371 98.9405 148.583 100.144 148.1 94.8474 134.888Z" fill="#E1DFDD" fill-rule="nonzero" fill-opacity="1" transform="matrix(1.00005 0 0 1 610 441)"/><path d="M188.342 122.815C186.312 125.064 182.848 125.238 180.601 123.209L176.583 119.579C174.336 117.549 174.16 114.086 176.19 111.837 178.221 109.589 181.684 109.415 183.932 111.445L187.949 115.075C190.197 117.104 190.372 120.568 188.342 122.815Z" fill="#8A6FE8" fill-rule="nonzero" fill-opacity="1" transform="matrix(1.00005 0 0 1 610 441)"/><path d="M196.202 118.59C194.172 120.838 190.709 121.013 188.46 118.983L184.443 115.353C182.195 113.324 182.02 109.859 184.05 107.611 186.08 105.364 189.545 105.189 191.792 107.219L195.81 110.848C198.052 112.879 198.227 116.342 196.202 118.59Z" fill="#8A6FE8" fill-rule="nonzero" fill-opacity="1" transform="matrix(1.00005 0 0 1 610 441)"/><path d="M169.101 112.693C166.097 113.044 163.376 110.886 163.026 107.881L162.401 102.501C162.051 99.4961 164.209 96.775 167.213 96.4249 170.219 96.0747 172.939 98.2326 173.289 101.238L173.914 106.618C174.264 109.623 172.111 112.344 169.101 112.693Z" fill="#8A6FE8" fill-rule="nonzero" fill-opacity="1" transform="matrix(1.00005 0 0 1 610 441)"/><path d="M43.0621 164.813C29.4952 163.138 19.042 160.156 11.9817 155.95 2.91029 150.546 0.563175 143.84 0.194072 139.166-0.411636 131.485 3.82832 122.968 12.1378 115.188 18.7581 108.989 27.3752 103.84 34.62 101.754L37.8994 113.12C26.4903 116.409 11.3098 129.677 11.9865 138.233 12.2467 141.517 15.9378 149.539 44.5149 153.068L43.0621 164.813Z" fill="#8A6FE8" fill-rule="nonzero" fill-opacity="1" transform="matrix(1.00005 0 0 1 610 441)"/><path d="M49.3132 138.427 37.5918 151C35.505 153.238 35.6233 156.75 37.8663 158.841 40.1046 160.928 43.6157 160.81 45.7073 158.567L57.4287 145.993C59.5156 143.756 59.3973 140.244 57.1542 138.153 54.9113 136.065 51.4 136.189 49.3132 138.427Z" fill="#8A6FE8" fill-rule="nonzero" fill-opacity="1" transform="matrix(1.00005 0 0 1 610 441)"/><path d="M43.6205 171.419 53.8796 176.748C56.6243 178.148 59.9841 177.06 61.3848 174.316 62.7855 171.571 61.6971 168.211 58.9525 166.81L48.433 161.345 43.6205 171.419Z" fill="#8A6FE8" fill-rule="nonzero" fill-opacity="1" transform="matrix(1.00005 0 0 1 610 441)"/><path d="M49.4504 169.172 65.3693 170.005C68.4451 170.156 71.0619 167.781 71.2086 164.705 71.3601 161.628 68.9846 159.012 65.9087 158.865L54.0737 158.208 49.4504 169.172Z" fill="#8A6FE8" fill-rule="nonzero" fill-opacity="1" transform="matrix(1.00005 0 0 1 610 441)"/><path d="M48.097 162.495 63.8029 159.688C66.8362 159.154 68.8615 156.258 68.3268 153.224 67.792 150.191 64.896 148.165 61.8627 148.7L45.8683 151.554 48.097 162.495Z" fill="#8A6FE8" fill-rule="nonzero" fill-opacity="1" transform="matrix(1.00005 0 0 1 610 441)"/><path d="M45.22 171.936C51.6674 171.936 56.894 166.708 56.894 160.261 56.894 153.814 51.6674 148.586 45.22 148.586 38.7725 148.586 33.5459 153.814 33.5459 160.261 33.5459 166.708 38.7725 171.936 45.22 171.936Z" fill="url(#fill18)" fill-rule="nonzero" transform="matrix(1.00005 0 0 1 610 441)"/><path d="M37.5351 119.097C44.1157 119.097 49.4504 113.762 49.4504 107.181 49.4504 100.601 44.1157 95.2657 37.5351 95.2657 30.9544 95.2657 25.6196 100.601 25.6196 107.181 25.6196 113.762 30.9544 119.097 37.5351 119.097Z" fill="url(#fill19)" fill-rule="nonzero" transform="matrix(1.00005 -1.39354e-17 0 1 610 441)"/></g></g></g></g></svg>